# xmcd
#
# Track frame offsets:
#	150
#	10504
#	23292
#	32706
#	44379
#	55823
#	68207
#	80907
#	92327
#	108469
#
# Disc length: 1577 seconds
#
# Revision: 1
# Processed by: cddbd v1.5.2PL0 Copyright (c) Steve Scherf et al.
# Submitted via: audiograbber 1.83.01
#
DISCID=6e06270a
DTITLE=Porter Wagoner - Sings His Own
DYEAR=1971
DGENRE=Country
TTITLE0=Be A Little Quieter
TTITLE1=Watching
TTITLE2=Albert Erving
TTITLE3=The Agony Of Waiting
TTITLE4=Late At Night
TTITLE5=The Late Love Of Mine
TTITLE6=Lonely Comin' Down
TTITLE7=The Way I See You
TTITLE8=Brother Harold Dee
TTITLE9=How High Is The Mountain
EXTD=
EXTT0=
EXTT1=
EXTT2=
EXTT3=
EXTT4=
EXTT5=
EXTT6=
EXTT7=
EXTT8=
EXTT9=
PLAYORDER=
